PathFileType	4	(X/Y/Z)	Test12_result.trc
DataRate	CameraRate	NumFrames	NumMarkers	Units	OrigDataRate	OrigDataStartFrame	OrigNumFrames
100	100	4	56	mm	100	124	493
Frame#	Time	PELO			PELA			PELL			PELP			LFEO			LFEA			LFEL			LFEP			LTIO			LTIA			LTIL			LTIP			LFOO			LFOA			LFOL			LFOP			LTOO			LTOA			LTOL			LTOP			RFEO			RFEA			RFEL			RFEP			RTIO			RTIA			RTIL			RTIP			RFOO			RFOA			RFOL			RFOP			RTOO			RTOA			RTOL			RTOP			LASI			RASI			LPSI			RPSI			LTHI			LKNE			LTIB			LANK			LHEE			LTOE			LFMH			LVMH			RTHI			RKNE			RTIB			RANK			RHEE			RTOE			RFMH			RVMH		
		X1	Y1	Z1	X2	Y2	Z2	X3	Y3	Z3	X4	Y4	Z4	X5	Y5	Z5	X6	Y6	Z6	X7	Y7	Z7	X8	Y8	Z8	X9	Y9	Z9	X10	Y10	Z10	X11	Y11	Z11	X12	Y12	Z12	X13	Y13	Z13	X14	Y14	Z14	X15	Y15	Z15	X16	Y16	Z16	X17	Y17	Z17	X18	Y18	Z18	X19	Y19	Z19	X20	Y20	Z20	X21	Y21	Z21	X22	Y22	Z22	X23	Y23	Z23	X24	Y24	Z24	X25	Y25	Z25	X26	Y26	Z26	X27	Y27	Z27	X28	Y28	Z28	X29	Y29	Z29	X30	Y30	Z30	X31	Y31	Z31	X32	Y32	Z32	X33	Y33	Z33	X34	Y34	Z34	X35	Y35	Z35	X36	Y36	Z36	X37	Y37	Z37	X38	Y38	Z38	X39	Y39	Z39	X40	Y40	Z40	X41	Y41	Z41	X42	Y42	Z42	X43	Y43	Z43	X44	Y44	Z44	X45	Y45	Z45	X46	Y46	Z46	X47	Y47	Z47	X48	Y48	Z48	X49	Y49	Z49	X50	Y50	Z50	X51	Y51	Z51	X52	Y52	Z52	X53	Y53	Z53	X54	Y54	Z54	X55	Y55	Z55	X56	Y56	Z56
	
186	1.850000	-2114.173357	891.794909	-184.228874	-1953.396706	871.715669	-189.967828	-2118.860709	900.514897	-346.053529	-2093.823003	1052.437522	-176.162022	-2062.124234	488.229393	-271.469173	-1668.106766	544.914128	-375.506866	-2166.033056	479.982113	-669.491523	-2119.045441	895.667783	-265.053231	-2124.731570	84.133549	-245.648247	-1744.127596	21.766445	-298.846283	-2181.128232	68.276641	-630.546885	-2065.241243	468.109993	-270.183556	-2009.689002	69.031886	-272.034584	-2005.456257	234.956473	-280.414225	-2032.781636	61.318487	-436.431473	-2174.212303	74.383350	-249.175255	-1954.847907	67.248087	-279.654350	-1953.437011	122.556269	-282.447510	-1962.545382	64.677011	-334.453303	-2009.688956	69.031869	-272.034638	-2067.990045	468.753785	-84.782179	-1654.071049	512.531594	-17.631752	-1999.294240	457.048457	-500.592332	-2109.301294	887.921953	-103.404519	-2386.831470	236.380176	-101.567320	-2168.279997	-65.997733	-66.958916	-2353.609395	217.730896	-474.319169	-2084.299833	456.867168	-85.640805	-2343.808722	130.583114	-79.465989	-2200.696104	206.942271	-70.264269	-2327.639665	119.707426	-240.782897	-2419.000384	273.577977	-96.648109	-2318.744485	82.918148	-73.738606	-2271.040283	108.371213	-70.671447	-2313.354879	79.292890	-127.510913	-2343.808407	130.583139	-79.465977	-2065.860658	981.339259	-311.838222	-2058.297983	967.270070	-50.745240	-2257.576874	1001.233831	-223.976863	-2254.546156	995.683457	-121.877942	-2099.985819	650.262160	-346.505975	-2076.771638	487.066761	-327.576927	-2125.442820	249.457234	-317.548939	-2139.049649	76.948220	-285.552620	-2173.646726	49.560952	-237.791575	-1999.314139	45.061223	-259.652369	-1952.226432	40.083441	-238.719046	-1993.589350	34.120264	-312.094498	-2104.347851	677.130554	-2.570692	-2077.358809	470.350158	-28.073145	-2221.956261	372.157294	-21.178083	-2399.269428	233.603649	-60.498969	-2443.384816	249.598282	-112.046566	-2362.642124	103.951271	-93.528088	-2335.209860	73.214699	-120.824035	-2360.262924	92.348497	-52.856027
187	1.860000	-2100.967127	893.868291	-185.632379	-1940.202618	873.840129	-191.867279	-2106.229711	902.007105	-347.469627	-2080.661885	1054.547728	-178.212063	-2058.664788	487.969362	-272.199106	-1663.721211	535.266899	-380.559363	-2166.953731	481.001393	-669.923278	-2106.126309	897.449844	-266.452351	-2124.004578	84.147443	-245.808613	-1744.558138	18.890634	-304.888286	-2186.405909	69.136082	-630.007886	-2061.916403	467.873025	-270.885778	-2009.003976	68.985490	-272.342790	-2004.780640	234.891397	-281.089509	-2032.354979	60.915558	-436.686055	-2173.491048	74.390902	-249.236716	-1954.174901	67.183715	-280.044790	-1952.767123	122.485676	-282.960330	-1961.958527	64.493780	-334.825867	-2009.003882	68.985512	-272.342808	-2044.443259	472.861726	-86.782268	-1631.524443	526.350096	-24.789298	-1980.678940	462.737998	-502.759824	-2095.807992	890.286690	-104.812409	-2354.688887	229.702898	-105.806132	-2126.140269	-64.711326	-69.857834	-2318.352371	212.457908	-478.081741	-2060.323592	460.415511	-87.756058	-2305.596319	126.603803	-83.556776	-2167.283491	211.285729	-73.575026	-2287.994939	116.854137	-244.796479	-2389.027493	264.932892	-101.025952	-2277.785634	80.494082	-77.733713	-2231.681371	108.721417	-74.406544	-2271.918583	77.244157	-131.480291	-2305.596090	126.603817	-83.556778	-2053.142525	982.971268	-313.618017	-2044.659156	969.851099	-52.730692	-2244.467478	1003.208627	-224.442916	-2241.032336	997.707374	-122.405364	-2093.463622	650.783646	-347.067454	-2073.899473	486.989016	-328.153794	-2124.578861	249.676325	-317.668433	-2138.983287	77.115678	-285.497128	-2173.527679	49.824943	-237.524389	-1999.275809	45.249004	-259.849844	-1952.148794	40.101729	-238.909574	-1993.593270	33.983606	-312.339314	-2084.874029	680.803774	-3.490035	-2053.152997	474.244527	-29.962696	-2194.908808	371.303460	-24.210158	-2367.299067	226.470454	-64.824100	-2412.505362	240.047904	-116.848212	-2322.906130	99.575548	-97.773821	-2293.130375	70.824696	-125.055954	-2319.827322	88.522628	-57.359517
188	1.870000	-2087.804984	895.660887	-186.994986	-1927.058982	875.655731	-193.757873	-2093.671358	903.235922	-348.838872	-2067.518905	1056.370719	-180.208344	-2055.308548	487.722256	-272.818833	-1659.734725	525.605107	-385.372864	-2167.838062	482.179778	-670.171115	-2093.265369	898.960261	-267.807182	-2123.268130	84.194717	-245.902670	-1745.096210	16.172512	-310.861279	-2191.651080	70.138596	-629.291064	-2058.689225	467.648885	-271.479896	-2008.310895	68.963278	-272.585030	-2004.075223	234.851336	-281.658893	-2031.916871	60.579441	-436.876148	-2172.761250	74.439415	-249.235549	-1953.494117	67.137929	-280.368155	-1952.082230	122.433942	-283.392779	-1961.362767	64.343327	-335.131853	-2008.310905	68.963320	-272.584999	-2021.451742	476.839846	-88.732564	-1609.721849	539.558227	-32.035339	-1962.797181	467.958060	-504.845644	-2082.344531	892.361553	-106.182804	-2321.812511	222.040965	-110.109466	-2082.395805	-63.262919	-73.369152	-2282.632058	207.031575	-482.007783	-2036.833354	463.791739	-89.827325	-2266.519611	122.216739	-87.472246	-2133.796356	215.349058	-76.878310	-2247.491269	113.425827	-248.605152	-2358.300979	255.071203	-105.553581	-2235.925583	77.931898	-81.445134	-2191.684537	108.976056	-77.913908	-2229.582874	75.001546	-135.156108	-2266.519497	122.216766	-87.472266	-2040.477694	984.326242	-315.344051	-2031.029887	972.126315	-54.690401	-2231.391895	1004.928755	-224.849783	-2227.550696	999.487349	-122.878771	-2087.000405	651.256830	-347.507148	-2071.111036	486.943887	-328.619078	-2123.740766	249.939654	-317.677486	-2138.901219	77.325727	-285.366634	-2173.400463	50.111603	-237.202739	-1999.178282	45.440155	-259.991914	-1952.059036	40.121738	-239.068960	-1993.596910	33.863132	-312.519530	-2065.693416	684.408699	-4.315744	-2029.475631	478.054834	-31.808282	-2167.889333	369.735587	-27.172912	-2334.532952	218.234492	-69.211365	-2380.570396	229.244229	-121.804105	-2282.221891	94.744091	-101.783889	-2250.158354	68.155099	-128.969501	-2278.518810	84.360905	-61.590488
189	1.880000	-2074.688834	897.145322	-188.307714	-1913.966937	877.137472	-195.613736	-2081.169927	904.182168	-350.152469	-2054.398813	1057.879282	-182.131694	-2052.030723	487.473301	-273.341327	-1656.109389	515.937974	-389.896094	-2168.595446	483.516159	-670.262435	-2080.455842	900.175668	-269.109151	-2122.528166	84.273283	-245.942019	-1745.746966	13.586300	-316.706973	-2196.801115	71.268997	-628.411089	-2055.536467	467.422996	-271.978793	-2007.614596	68.946845	-272.758199	-2003.322096	234.816961	-282.127800	-2031.453627	60.286022	-437.001310	-2172.029858	74.533031	-249.188768	-1952.809654	67.084814	-280.614649	-1951.378843	122.374841	-283.737877	-1960.755999	64.197853	-335.362346	-2007.614776	68.946881	-272.758147	-1999.007256	480.625544	-90.635047	-1588.645661	552.107019	-39.265213	-1945.522754	472.684891	-506.833512	-2068.921590	894.115104	-107.506324	-2288.166493	213.554977	-114.443326	-2037.240605	-61.445063	-77.101527	-2246.291080	201.309819	-486.034912	-2013.819430	466.945058	-91.854687	-2226.662679	117.590512	-91.177132	-2100.328735	219.153299	-80.079212	-2206.119530	109.629655	-252.166932	-2326.744030	244.160279	-110.203594	-2193.302020	75.400592	-84.834978	-2151.190780	109.254907	-81.135778	-2186.454396	72.746918	-138.498232	-2226.662644	117.590565	-91.177147	-2027.855587	985.384609	-317.009493	-2017.427360	974.061845	-56.593515	-2218.351586	1006.367925	-225.204650	-2214.106710	1000.989207	-123.304818	-2080.566266	651.665383	-347.843254	-2068.372833	486.918497	-328.988645	-2122.911505	250.238588	-317.594887	-2138.803067	77.575393	-285.175277	-2173.268247	50.422542	-236.839633	-1999.032742	45.616745	-260.073051	-1951.959176	40.137772	-239.200503	-1993.599338	33.755458	-312.644029	-2046.827296	687.864829	-5.057195	-2006.334633	481.713393	-33.614383	-2140.895557	367.540831	-30.075503	-2300.947349	209.095820	-73.630340	-2347.527585	217.392884	-126.868976	-2240.665028	89.646634	-105.536021	-2206.436066	65.355669	-132.516427	-2236.466898	79.994993	-65.518261
